<?xml version="1.0" encoding="UTF-8"?>
<svg width="80mm" height="80mm" version="1.1" viewBox="0 0 80 80" xml:space="preserve" xmlns="http://www.w3.org/2000/svg"><g transform="translate(-.14149 -.14173)"><rect x=".14149" y=".14173" width="79.717" height="79.717" fill="none"/><path d="m39.84 20.817a1.4634 1.4634 0 0 0-1.3032 1.4861v13.171h-26.341c-2.4073 0-4.3902 1.9829-4.3902 4.3902v33.658c0 2.4073 1.9829 4.3902 4.3902 4.3902h55.609c2.4073 0 4.3902-1.9829 4.3902-4.3902v-33.658c0-2.4073-1.9829-4.3902-4.3902-4.3902h-21.951a1.4634 1.4634 0 1 0 0 2.9268h21.951c0.83633 0 1.4634 0.62707 1.4634 1.4634v33.658c0 0.83633-0.62707 1.4634-1.4634 1.4634h-55.609c-0.83633 0-1.4634-0.62707-1.4634-1.4634v-33.658c0-0.83634 0.62707-1.4634 1.4634-1.4634h27.805a1.4634 1.4634 0 0 0 1.4634-1.4634v-14.634a1.4634 1.4634 0 0 0-1.6236-1.4861zm-24.854 20.51a1.4634 1.4634 0 0 0-1.3266 1.4634v27.805a1.4634 1.4634 0 0 0 1.4634 1.4634h49.756a1.4634 1.4634 0 0 0 1.4634-1.4634v-27.805a1.4634 1.4634 0 0 0-1.4634-1.4634h-49.756a1.4634 1.4634 0 0 0-0.13756 0zm1.6002 2.9268h5.8536v5.8536h-5.8536zm8.7804 0h5.1219v5.8536h-5.1219zm8.0487 0h5.1219v5.8536h-5.1219zm8.0487 0h5.1219v5.8536h-5.1219zm8.0487 0h5.1219v5.8536h-5.1219zm8.0487 0h5.8536v16.097h-13.902v-7.317h6.5853a1.4634 1.4634 0 0 0 1.4634-1.4634zm-40.975 8.7804h5.8536v7.317h-5.8536zm8.7804 0h5.1219v7.317h-5.1219zm8.0487 0h5.1219v7.317h-5.1219zm8.0487 0h5.1219v7.317h-5.1219zm-24.878 10.244h5.8536v5.8536h-5.8536zm8.7804 0h29.268v5.8536h-29.268zm32.195 0h5.8536v5.8536h-5.8536z" color="#000000" fill="#e6e6e6" font-family="Sans" font-weight="400" overflow="visible" stroke-width="7.658" style="text-indent:0;text-transform:none"/><text x="16.905886" y="32.636738" fill="#e6e6e6" font-size="38.035px" letter-spacing=".92604px" stroke-width="0" xml:space="preserve"><tspan x="16.905886" y="32.636738" fill="#e6e6e6" font-family="Comfortaa" font-size="38.035px" stroke-width="0">86</tspan></text></g></svg>
